<svg width="8" height="5" viewBox="0 0 8 5" fill="none" xmlns="http://www.w3.org/2000/svg">
<path d="M3.99998 4.55C3.93331 4.55 3.8722 4.53889 3.81664 4.51666C3.76109 4.49444 3.70553 4.45555 3.64998 4.4L0.349978 1.1C0.261089 1.01111 0.219422 0.891664 0.224978 0.741664C0.230533 0.591664 0.277755 0.47222 0.366644 0.383331C0.477755 0.27222 0.5972 0.224998 0.724977 0.241664C0.852755 0.258331 0.966644 0.311109 1.06664 0.399998L3.99998 3.33333L6.93331 0.399998C7.0222 0.311109 7.14164 0.261109 7.29164 0.249997C7.44164 0.238886 7.56109 0.288887 7.64998 0.399998C7.76109 0.488887 7.80831 0.605553 7.79164 0.749997C7.77498 0.894442 7.7222 1.01666 7.63331 1.11666L4.34998 4.4C4.29442 4.45555 4.23887 4.49444 4.18331 4.51666C4.12776 4.53889 4.06664 4.55 3.99998 4.55Z" fill="#4F4F4F"/>
</svg>
