<svg width="19" height="20" viewBox="0 0 19 20" fill="none" xmlns="http://www.w3.org/2000/svg">
<path d="M7.83269 11.41C8.24269 11.8 8.24269 12.44 7.83269 12.83C7.44269 13.22 6.80269 13.22 6.41269 12.83C5.47607 11.892 4.95 10.6206 4.95 9.295C4.95 7.96942 5.47607 6.69803 6.41269 5.76L9.95269 2.22C10.8907 1.28338 12.1621 0.757309 13.4877 0.757309C14.8133 0.757309 16.0847 1.28338 17.0227 2.22C17.9593 3.15803 18.4854 4.42942 18.4854 5.755C18.4854 7.08058 17.9593 8.35197 17.0227 9.29L15.5327 10.78C15.5427 9.96 15.4127 9.14 15.1327 8.36L15.6027 7.88C15.883 7.60269 16.1056 7.27253 16.2575 6.90863C16.4094 6.54473 16.4876 6.15433 16.4876 5.76C16.4876 5.36568 16.4094 4.97527 16.2575 4.61137C16.1056 4.24747 15.883 3.91731 15.6027 3.64C15.3254 3.35966 14.9952 3.13711 14.6313 2.98522C14.2674 2.83333 13.877 2.75512 13.4827 2.75512C13.0884 2.75512 12.698 2.83333 12.3341 2.98522C11.9702 3.13711 11.64 3.35966 11.3627 3.64L7.83269 7.17C7.55235 7.44731 7.3298 7.77747 7.17791 8.14137C7.02602 8.50527 6.94781 8.89568 6.94781 9.29C6.94781 9.68433 7.02602 10.0747 7.17791 10.4386C7.3298 10.8025 7.55235 11.1327 7.83269 11.41ZM10.6527 7.17C11.0427 6.78 11.6827 6.78 12.0727 7.17C13.0093 8.10803 13.5354 9.37942 13.5354 10.705C13.5354 12.0306 13.0093 13.302 12.0727 14.24L8.53269 17.78C7.59466 18.7166 6.32327 19.2427 4.99769 19.2427C3.67211 19.2427 2.40072 18.7166 1.46269 17.78C0.52607 16.842 0 15.5706 0 14.245C0 12.9194 0.52607 11.648 1.46269 10.71L2.95269 9.22C2.94269 10.04 3.07269 10.86 3.35269 11.65L2.88269 12.12C2.60235 12.3973 2.3798 12.7275 2.22791 13.0914C2.07602 13.4553 1.99781 13.8457 1.99781 14.24C1.99781 14.6343 2.07602 15.0247 2.22791 15.3886C2.3798 15.7525 2.60235 16.0827 2.88269 16.36C3.16 16.6403 3.49016 16.8629 3.85406 17.0148C4.21796 17.1667 4.60837 17.2449 5.00269 17.2449C5.39702 17.2449 5.78742 17.1667 6.15132 17.0148C6.51522 16.8629 6.84538 16.6403 7.12269 16.36L10.6527 12.83C10.933 12.5527 11.1556 12.2225 11.3075 11.8586C11.4594 11.4947 11.5376 11.1043 11.5376 10.71C11.5376 10.3157 11.4594 9.92527 11.3075 9.56137C11.1556 9.19747 10.933 8.86731 10.6527 8.59C10.5556 8.49899 10.4782 8.38903 10.4252 8.2669C10.3723 8.14478 10.345 8.0131 10.345 7.88C10.345 7.7469 10.3723 7.61522 10.4252 7.4931C10.4782 7.37097 10.5556 7.26101 10.6527 7.17Z" fill="#AD1A72"/>
</svg>
